# xmcd
# 
# Track frame offsets:
#     150
#     24070
#     39422
#     54352
#     65272
#     93340
#     112072
#     130767
#     144945
#     168405
# 
# Disc length: 2548
# 
# Revision: 11
# Processed by: cddbd v1.5.2PL0 Copyright (c) Steve Scherf et al.
# Submitted via: fre:ac v1.0.31
# 
DISCID=7709f20a
DTITLE=Grateful Dead, The - American Beauty
DYEAR=1970
DGENRE=Americana
TTITLE0=Box Of Rain
TTITLE1=Friend Of The Devil
TTITLE2=Sugar Magnolia
TTITLE3=Operator
TTITLE4=Candyman
TTITLE5=Ripple
TTITLE6=Brokedown Palace
TTITLE7=Till The Morning Comes
TTITLE8=Attics Of My Life
TTITLE9=Truckin
EXTD=YEAR: 1970
EXTT0=
EXTT1=
EXTT2=
EXTT3=
EXTT4=
EXTT5=
EXTT6=
EXTT7=
EXTT8=
EXTT9=
PLAYORDER=
